<?xml version="1.0" encoding="utf-8"?>
<!-- Generator: Adobe Illustrator 18.1.1, SVG Export Plug-In . SVG Version: 6.00 Build 0)  -->
<svg version="1.1" id="Layer_1" xmlns="http://www.w3.org/2000/svg" xmlns:xlink="http://www.w3.org/1999/xlink" x="0px" y="0px"
	 viewBox="0 0 1280 800" enable-background="new 0 0 1280 800" xml:space="preserve">
<path fill="#8CAB67" d="M747.3,440H331.2c-17.4-2-30.2-17.3-28.6-34.7s16.8-30.4,34.4-28.7c31.5,2.9,64.7,55.9,151.5,23.9
	C609.6,355.8,750.8,402,747.3,440z"/>
<g>
	<g>
		<path fill="#8E6008" d="M339.4,444.7c-7.3,0.5-12.6-5.8-16.8-10.9c-4.4-5.4-6.1-12.3-8.8-18.7c-3-7.3-8.2-18.7-1.7-25.6
			c4.5-4.7,11.6-6.1,17.4-8.6c8-3.4,16.2-5.2,24.9-3.7c8.4,1.5,17.7,7.2,24.3,12.6c2.5,2.1,4.9,4.4,7.6,6.4c2.8,2,6.2,3,9.4,4.5
			c6,2.9,11.7,5.3,18.3,6.2c8.7,1.2,17,2.7,25.5,4.7c6.7,1.6,13.6,2.7,20.5,2.9c15.2,0.4,28.4-9.3,41.6-15.5
			c7.6-3.5,15.5-5.6,23.5-7.8c8.1-2.2,16-4.9,24.1-6.7c16.6-3.8,33.6-5.6,50.6-7.1c8.6-0.8,17.2-1.5,25.8-2.1
			c7.5-0.5,15.5,0,22.7-2.3c3.6-1.2,6.9-2.3,10.7-1.2c3.8,1.1,7.2,3.3,10.6,5.2c6.7,3.7,13.4,7.6,20.3,11c5.4,2.7,12,3.4,16.9,7.1
			c6.4,4.9,10.7,12.7,15.4,19.2c4.1,5.6,9,10.1,13.8,15.1c2,2.1,3.8,4.4,5.6,6.8c2.2,2.9,5.4,6,0,7.5c-3.5,1-8.4-0.1-12-0.1
			c-4.3-0.1-8.5,0-12.8,0.2c-8.4,0.4-16.5-0.2-24.9-1.1c-7.9-0.9-15.9-1.8-23.9-1.1c-8.6,0.8-17,1.4-25.7,1
			c-8.2-0.3-16.4-1-24.6-1.1c-8.7-0.1-17.2,1.2-25.9,1.9c-16.9,1.4-33.9,1.1-50.9,1.3c-17.2,0.2-34.4,1.1-51.6-0.4
			c-8.6-0.8-17.2-1.8-25.8-3.2c-4-0.6-8-1.3-12.1-2.1c-3-0.6-5.9-1.4-9-0.9c-2.4,0.4-4.6,1.4-6.8,2.4c-4.4,1.9-7.1,2.6-11.9,1.7
			c-8.1-1.6-16.5-0.1-24.6-1.4c-7.7-1.2-14.9-0.6-22.6,0.1c-7.2,0.6-13.5-0.4-20.5-1.8c-4.2-0.9-8.7-1.2-11.6,2.5
			c-1.2,1.5,0.9,3.6,2.1,2.1c4.1-5.1,13.7,0,19.2,0.4c8.3,0.7,16.6-1.2,24.9-1.1c4.3,0.1,8.5,1.2,12.8,1.5c4.7,0.3,9.5-0.2,14.2,0.1
			c3.8,0.2,7.5,1.8,11.3,1.4c2.4-0.2,4.7-1.3,7-2.2c4.1-1.8,7.4-3.1,12-2.3c4.6,0.8,9.2,1.7,13.9,2.4c8.5,1.4,17.1,2.5,25.7,3.3
			c18.1,1.7,36.2,0.7,54.4,0.5c18.3-0.2,36.5,0.2,54.7-1.7c9.3-1,18.3-1.7,27.7-1.3c8.8,0.3,17.6,1.1,26.5,1.1
			c9.1,0,18.1-1.8,27.3-1.3c8.6,0.4,17.1,1.9,25.7,2.4c8.9,0.6,17.8-0.4,26.6-0.2c4.2,0.1,15.8,2.6,17.7-3.2
			c1.2-3.4-3.1-7.4-4.9-9.9c-4.2-5.6-9.5-10-14.1-15.1c-5.3-5.9-9.2-12.9-14.2-19c-4.5-5.5-8.8-8.6-15.5-10.9
			c-7.6-2.6-14.2-6.5-21.2-10.3c-6-3.3-12.4-7.7-19.1-9.4c-2.7-0.7-5.2-0.5-7.9,0.2c-4.6,1.2-8.5,2.4-13.2,2.7
			c-8.9,0.4-17.9,1.1-26.8,1.8c-17.3,1.5-34.7,3-51.9,6c-8.9,1.6-17.8,3.7-26.5,6.4c-8,2.5-16.2,4.3-24.1,7.1
			c-8.2,2.8-15.9,7.1-23.6,11c-8.2,4.1-15.9,8-25.3,7.7c-8.5-0.2-16.8-2.1-25-4.1c-8.6-2.1-17.7-2.2-26.2-4.5
			c-3.8-1-7.4-2.7-10.9-4.4c-4.1-2-8.2-3.3-11.7-6.3c-6.1-5-11.7-9.6-18.8-13.1c-7.6-3.8-13.9-5.5-22.4-5.2
			c-7.5,0.2-13.4,3.3-20.3,5.9c-5.4,2-11.7,3.9-15.4,8.7c-3.5,4.4-3.7,11.2-2.3,16.4c2.2,7.8,5.7,15.2,8.5,22.8
			c2,5.4,5.9,9.9,10,13.9c3.9,3.7,8.4,6.7,14,6.3C341.3,447.5,341.3,444.5,339.4,444.7L339.4,444.7z"/>
	</g>
</g>
<g>
	<g>
		<path fill="#8E6008" d="M491.3,432.5c15.4,0.1,30.7-1.5,46.1-2.6c16-1.2,32-1.7,48.1-2.5c31.9-1.5,63.7-4.9,95.7-5
			c1.9,0,1.9-3,0-3c-32,0.1-63.8,3.5-95.7,5c-15.7,0.7-31.4,1.2-47.1,2.4c-15.7,1.2-31.3,2.8-47.1,2.7
			C489.3,429.5,489.3,432.5,491.3,432.5L491.3,432.5z"/>
	</g>
</g>
<g>
	<g>
		<path fill="#8E6008" d="M676.1,418.1c-14.9,0.1-29.7-1-44.3-3.7c-6.8-1.3-13.5-3-20.3-4.5c-2.6-0.6-5.3-1.2-8-1.4
			c-3.1-0.3-6.2,0.2-8.9-1.6c-1.6-1.1-3.1,1.5-1.5,2.6c4.1,2.8,10.1,1.9,14.8,2.7c7.7,1.5,15.3,3.6,23.1,5.1
			c14.9,2.8,30,3.9,45.1,3.8C678,421.1,678,418.1,676.1,418.1L676.1,418.1z"/>
	</g>
</g>
<g>
	<g>
		<path fill="#8E6008" d="M596.3,424.4c-16.6,0-33.1-0.9-49-6.3c-1.8-0.6-2.6,2.3-0.8,2.9c16.1,5.5,32.9,6.4,49.8,6.4
			C598.2,427.4,598.3,424.4,596.3,424.4L596.3,424.4z"/>
	</g>
</g>
<g>
	<g>
		<path fill="#8E6008" d="M522.9,428.2c-2.7-0.2-5.4-2.2-7.9-3.1c-2.7-1-5.4-1.7-8.1-2.4c-5.1-1.3-10.2-2.5-15.6-2.1
			c-1.9,0.1-1.9,3.1,0,3c6.1-0.4,12.2,1.2,18,2.8c4.6,1.3,8.9,4.3,13.6,4.7C524.8,431.4,524.8,428.4,522.9,428.2L522.9,428.2z"/>
	</g>
</g>
</svg>
